<svg width="512.004" height="512.004" xmlns="http://www.w3.org/2000/svg">

 <g>
  <title>background</title>
  <rect fill="none" id="canvas_background" height="602" width="802" y="-1" x="-1"/>
 </g>
 <g>
  <title>Layer 1</title>
  <g id="svg_1">
   <g id="svg_2">
    <g id="svg_3">
     <path fill="#619E73" id="svg_4" d="m319.933,373.338l-127.851,0c-5.888,0 -10.667,7.168 -10.667,16c0,8.832 4.768,16 10.667,16l127.851,0c5.888,0 10.667,-7.168 10.667,-16c0,-8.832 -4.779,-16 -10.667,-16z"/>
     <path fill="#619E73" id="svg_5" d="m319.933,426.671l-127.851,0c-5.888,0 -10.667,7.168 -10.667,16c0,8.832 4.768,16 10.667,16l127.851,0c5.888,0 10.667,-7.168 10.667,-16c0,-8.832 -4.779,-16 -10.667,-16z"/>
     <path fill="#619E73" id="svg_6" d="m287.997,480.004l-64,0c-5.888,0 -10.667,7.168 -10.667,16c0,8.832 4.768,16 10.667,16l64,0c5.888,0 10.667,-7.168 10.667,-16c0,-8.832 -4.811,-16 -10.667,-16z"/>
     <path fill="#619E73" id="svg_7" d="m403.378,107.876c-3.915,-10.379 -13.067,-34.688 -35.2,-58.155c-23.349,-24.757 -51.136,-40.533 -82.603,-46.816c-19.522,-3.874 -39.614,-3.874 -59.136,0c-31.424,6.293 -59.221,22.037 -82.603,46.805c-22.059,23.36 -31.275,47.744 -35.2,58.155c-4.981,13.216 -14.261,37.803 -11.648,70.144c2.88,35.584 18.368,61.579 23.467,70.123c3.2,5.28 9.6,15.371 22.453,33.483c3.2,4.576 6.005,8.32 8.405,11.573c5.973,8.107 9.269,12.576 12.661,19.627c4.629,9.618 8.037,19.777 10.144,30.24c1.013,4.963 5.377,8.529 10.443,8.533l142.901,0c5.137,-0.007 9.54,-3.674 10.475,-8.725c1.899,-10.382 5.272,-20.439 10.016,-29.867c3.712,-7.339 7.136,-12.032 13.355,-20.565c2.251,-3.083 4.811,-6.603 7.861,-10.891c8.843,-12.459 16.491,-23.221 22.4,-33.461c5.653,-9.6 20.672,-35.2 23.467,-70.091c2.54,-32.394 -6.698,-56.928 -11.658,-70.112z"/>
    </g>
   </g>
  </g>
  <g id="svg_8"/>
  <g id="svg_9"/>
  <g id="svg_10"/>
  <g id="svg_11"/>
  <g id="svg_12"/>
  <g id="svg_13"/>
  <g id="svg_14"/>
  <g id="svg_15"/>
  <g id="svg_16"/>
  <g id="svg_17"/>
  <g id="svg_18"/>
  <g id="svg_19"/>
  <g id="svg_20"/>
  <g id="svg_21"/>
  <g id="svg_22"/>
 </g>
</svg>