<?xml version="1.0" encoding="iso-8859-1"?>
<!-- Generator: Adobe Illustrator 19.0.0, SVG Export Plug-In . SVG Version: 6.00 Build 0)  -->
<svg version="1.1" id="Capa_1" xmlns="http://www.w3.org/2000/svg" xmlns:xlink="http://www.w3.org/1999/xlink" x="0px" y="0px"
	 viewBox="0 0 469.33 469.33" style="enable-background:new 0 0 469.33 469.33;" xml:space="preserve">
<g>
	<g>
		<path d="M366.175,19.236c-2.115-2.573-5.313-3.927-8.667-3.854c-3.333,0.135-6.406,1.833-8.313,4.573l-41.344,59.479
			l-33.646-33.646c-2.25-2.25-5.292-3.344-8.594-3.073c-3.177,0.313-6.052,2.042-7.823,4.698l-31.417,47.125L191.238,6.705
			c-1.469-3.677-4.865-6.24-8.802-6.646c-4.01-0.417-7.781,1.396-9.979,4.688l-31.479,47.219l-14.469-35.719
			c-1.375-3.385-4.396-5.844-8-6.49c-3.583-0.667-7.292,0.604-9.76,3.302c-28.854,31.604-44.75,72.417-44.75,114.938
			c0,64.25,28.979,100.094,48.156,123.813c8.5,10.51,15.844,19.594,15.844,25.521v21.333c0,15.375,8.302,29.302,21.333,36.802
			v67.281c0,11.229,4.552,22.229,12.5,30.167l20.792,20.792c10.073,10.073,23.469,15.625,37.719,15.625h28.646
			c14.25,0,27.646-5.552,37.719-15.625l20.792-20.792c7.948-7.938,12.5-18.938,12.5-30.167v-67.281
			c13.031-7.5,21.333-21.427,21.333-36.802V277.33c0-5.927,7.344-15.01,15.844-25.521c19.177-23.719,48.156-59.563,48.156-123.813
			C405.332,88.361,391.425,49.726,366.175,19.236z M292.415,417.83l-8.833,8.833h-97.833l-8.833-8.833
			c-3.34-3.34-5.137-7.835-5.732-12.5h126.964C297.552,409.995,295.755,414.49,292.415,417.83z M298.665,362.663h-128V341.33h128
			V362.663z"/>
	</g>
</g>
<g>
</g>
<g>
</g>
<g>
</g>
<g>
</g>
<g>
</g>
<g>
</g>
<g>
</g>
<g>
</g>
<g>
</g>
<g>
</g>
<g>
</g>
<g>
</g>
<g>
</g>
<g>
</g>
<g>
</g>
</svg>
