<svg height="511pt" viewBox="-93 0 511 511.99967" width="511pt" xmlns="http://www.w3.org/2000/svg"><path d="m62.457031 311.125c3.871094-.632812 7.839844-.972656 11.886719-.972656h73.710938l-.121094-40.742188c-16.636719-3-31.949219-10.949218-44.15625-23.152344-32.632813-32.632812-32.632813-85.730468 0-118.359374l48.738281-48.738282c5.765625-5.769531 15.117187-5.769531 20.886719 0l48.738281 48.738282c32.632813 32.628906 32.632813 85.726562 0 118.359374-12.332031 12.328126-27.835937 20.3125-44.667969 23.242188l.121094 40.652344h73.980469c4.03125 0 7.984375.339844 11.84375.964844 5.367187-16.429688 13.761719-31.832032 24.867187-45.28125 23.945313-28.996094 37.136719-65.710938 37.136719-103.375 0-43.003907-16.636719-83.539063-46.851563-114.136719-30.179687-30.570313-70.441406-47.726563-113.367187-48.308594-43.480469-.605469-84.578125 15.679687-115.59375 45.808594-31.027344 30.136719-48.460937 70.703125-49.09375 114.222656-.5585938 38.445313 12.554687 75.929687 36.921875 105.550781 11.171875 13.578125 19.617188 29.0625 25.019531 45.527344zm0 0"/><path d="m201.253906 225.371094c21.117188-21.117188 21.117188-55.472656 0-76.585938l-38.292968-38.296875-38.296876 38.296875c-21.113281 21.113282-21.113281 55.46875 0 76.585938 6.574219 6.574218 14.546876 11.238281 23.242188 13.738281v-61.878906c0-8.15625 6.613281-14.769531 14.769531-14.769531s14.769531 6.613281 14.769531 14.769531v62.035156c8.917969-2.460937 17.09375-7.179687 23.808594-13.894531zm0 0"/><path d="m251.574219 339.691406h-177.230469c-24.429688 0-44.308594 19.878906-44.308594 44.308594 0 22.765625 17.265625 41.570312 39.386719 44.027344v39.664062c0 4.648438 2.1875 9.027344 5.90625 11.816406l39.386719 29.539063c2.554687 1.914063 5.664062 2.953125 8.859375 2.953125h78.769531c3.195312 0 6.304688-1.039062 8.863281-2.953125l39.382813-29.539063c3.71875-2.789062 5.90625-7.167968 5.90625-11.816406v-39.664062c22.125-2.457032 39.386718-21.261719 39.386718-44.027344 0-24.429688-19.875-44.308594-44.308593-44.308594zm0 0"/></svg>