<svg id="Capa_1" enable-background="new 0 0 512 512" height="512" viewBox="0 0 512 512" width="512" xmlns="http://www.w3.org/2000/svg"><g><g><path d="m469.281 140.306c-4.753-10.52-15.329-17.845-27.623-17.845-1.924 0-3.804.187-5.629.53-4.218-11.663-15.386-19.999-28.505-19.999-.013 0-.027.001-.04.001-.83-21.584-18.58-38.829-40.367-38.829-1.46 0-2.901.082-4.322.233-4.095-11.89-15.372-20.436-28.652-20.436-1.825 0-3.609.17-5.345.48-2.299-14.457-14.819-25.508-29.923-25.508-4.432 0-8.637.959-12.431 2.669-7.41-8.628-18.391-14.1-30.657-14.1-12.2 0-23.128 5.414-30.537 13.962-3.714-1.624-7.813-2.531-12.126-2.531-15.104 0-27.624 11.051-29.923 25.508-1.736-.309-3.52-.48-5.345-.48-13.28 0-24.558 8.546-28.652 20.436-1.42-.151-2.861-.233-4.322-.233-21.787 0-39.537 17.246-40.367 38.829-.013 0-.027-.001-.04-.001-13.118 0-24.287 8.336-28.505 19.999-1.825-.343-3.704-.53-5.629-.53-12.294 0-22.87 7.325-27.623 17.845-20.818 11.033-35.007 32.912-35.007 58.114 0 29.574 19.531 54.583 46.396 62.843 1.654 20.797 19.043 37.163 40.265 37.163 4.365 0 8.564-.701 12.502-1.981 4.61 10.855 15.368 18.468 27.905 18.468 11.109 0 20.816-5.981 26.092-14.895 6.783 5.153 15.24 8.216 24.416 8.216 3.901 0 7.668-.564 11.237-1.596 3.581 12.745 15.28 22.092 29.169 22.092 4.38 0 8.534-.947 12.292-2.621 3.55 14.046 16.269 24.441 31.418 24.441 5.451 0 10.584-1.352 15.092-3.729 4.025 9.568 13.486 16.287 24.518 16.287 14.684 0 26.589-11.904 26.589-26.589 0-.682-.034-1.355-.084-2.024 11.561-4.028 20.459-13.724 23.369-25.764 5.09 3.876 11.44 6.182 18.332 6.182 12.537 0 23.295-7.613 27.905-18.468 3.938 1.28 8.137 1.981 12.501 1.981 21.223 0 38.612-16.365 40.265-37.163 26.866-8.26 46.396-33.269 46.396-62.843.002-25.202-14.186-47.081-35.005-58.114z" fill="#8d9ca8"/></g><g><path d="m469.281 140.306c-4.753-10.52-15.329-17.845-27.623-17.845-1.924 0-3.804.187-5.629.53-4.218-11.663-15.386-19.999-28.505-19.999-.013 0-.027.001-.04.001-.439-11.43-5.625-21.642-13.642-28.721-6.672 54.528-36.436 114.508-86.452 164.523-33.475 33.475-71.414 57.873-109.194 72.357 4.808 10.378 15.308 17.58 27.498 17.58 4.38 0 8.534-.947 12.292-2.621 3.55 14.046 16.269 24.441 31.418 24.441 5.451 0 10.584-1.352 15.092-3.729 4.025 9.568 13.486 16.287 24.518 16.287 14.684 0 26.589-11.904 26.589-26.589 0-.682-.034-1.355-.084-2.024 11.561-4.028 20.459-13.724 23.369-25.764 5.09 3.876 11.44 6.182 18.332 6.182 12.537 0 23.295-7.613 27.905-18.468 3.938 1.28 8.137 1.981 12.501 1.981 21.223 0 38.612-16.365 40.265-37.163 26.866-8.26 46.396-33.269 46.396-62.843.001-25.204-14.187-47.083-35.006-58.116z" fill="#7a8c98"/></g><g><g><g><g><g><path d="m190.449 229.736c-31.192 0-56.569-25.376-56.569-56.569s25.377-56.569 56.569-56.569c11.334 0 22.274 3.344 31.639 9.671 7.397 4.997 9.342 15.043 4.345 22.44-4.997 7.398-15.043 9.343-22.441 4.345-4-2.702-8.684-4.13-13.544-4.13-13.368 0-24.244 10.876-24.244 24.244s10.876 24.244 24.244 24.244c4.719 0 8.457-1.285 11.427-3.93.575-.513 1.13-1.085 1.644-1.7 5.736-6.839 15.93-7.734 22.77-1.999 6.839 5.736 7.734 15.931 1.999 22.77-1.518 1.81-3.171 3.515-4.913 5.067-8.9 7.926-20.285 12.116-32.926 12.116z" fill="#e6f7fe"/></g></g></g><g><g><path d="m321.126 229.736c-31.192 0-56.569-25.376-56.569-56.569s25.377-56.569 56.569-56.569 56.569 25.376 56.569 56.569-25.376 56.569-56.569 56.569zm0-80.813c-13.368 0-24.244 10.876-24.244 24.244s10.876 24.244 24.244 24.244 24.244-10.876 24.244-24.244-10.875-24.244-24.244-24.244z" fill="#e6f7fe"/></g></g></g></g><g><path d="m415.237 384.961c-.761 0-1.513.04-2.257.108-3.958-13.378-16.332-23.142-30.994-23.142-17.112 0-31.11 13.299-32.242 30.124-12.691.775-22.746 11.307-22.746 24.193 0 13.39 10.854 24.244 24.244 24.244 5.812 0 11.145-2.047 15.321-5.457 2.655 10.509 12.17 18.287 23.504 18.287 11.908 0 21.804-8.588 23.849-19.907.437.024.877.037 1.32.037 13.39 0 24.244-10.854 24.244-24.244s-10.853-24.243-24.243-24.243z" fill="#7a8c98"/></g><g><path d="m300.192 456.012c-.761 0-1.513.039-2.257.108-3.958-13.378-16.332-23.142-30.994-23.142-17.853 0-32.325 14.473-32.325 32.325 0 17.853 14.473 32.325 32.325 32.325 4.897 0 9.537-1.095 13.697-3.044 4.412 6.011 11.526 9.916 19.554 9.916 13.39 0 24.244-10.854 24.244-24.244s-10.854-24.244-24.244-24.244z" fill="#7a8c98"/></g><g><path d="m46.231 146.937c1.47-.778 2.64-2.024 3.324-3.54 3.686-8.162 11.844-13.437 20.784-13.437 1.391 0 2.822.136 4.254.403 3.608.67 7.179-1.367 8.429-4.821 3.258-9.003 11.881-15.052 21.498-15.052 4.03 0 7.339-3.185 7.495-7.212.682-17.729 15.118-31.618 32.865-31.618 1.114 0 2.269.065 3.53.198 3.48.373 6.742-1.71 7.88-5.014 3.173-9.202 11.841-15.385 21.569-15.385 1.324 0 2.675.122 4.015.362 1.983.356 4.026-.102 5.669-1.268 1.643-1.167 2.747-2.946 3.063-4.937 1.769-11.116 11.238-19.186 22.514-19.186 3.165 0 6.236.641 9.128 1.903 3.008 1.313 6.52.519 8.669-1.961 6.264-7.227 15.33-11.372 24.873-11.372 9.595 0 18.692 4.187 24.959 11.485 2.166 2.522 5.735 3.317 8.768 1.954 2.963-1.334 6.113-2.01 9.362-2.01 11.276 0 20.745 8.07 22.513 19.188.316 1.989 1.419 3.767 3.06 4.934 1.642 1.168 3.684 1.626 5.665 1.272 1.353-.242 2.707-.364 4.023-.364 9.729 0 18.396 6.183 21.569 15.385 1.139 3.303 4.404 5.377 7.88 5.014 1.262-.133 2.417-.198 3.531-.198 2.626 0 5.23.309 7.741.918 4.03.982 8.081-1.493 9.058-5.52.977-4.024-1.494-8.08-5.52-9.057-3.513-.853-7.143-1.303-10.797-1.34-6.411-12.183-19.078-20.075-33.123-20.2-5.264-14.846-19.291-25.032-35.599-25.032-3.559 0-7.045.489-10.418 1.459-8.829-8.245-20.472-12.888-32.672-12.888-12.148 0-23.761 4.609-32.581 12.795-3.271-.907-6.647-1.365-10.089-1.365-16.308 0-30.335 10.187-35.599 25.032-14.044.125-26.712 8.018-33.123 20.2-23.378.229-42.714 17.011-46.669 39.439-11.112 2.029-20.828 8.981-26.325 18.874-14.352-.437-27.643 7.413-34.36 19.9-22.784 13.06-36.834 37.183-36.834 63.545 0 12.133 3.029 24.156 8.76 34.772 1.356 2.513 3.938 3.938 6.606 3.938 1.203 0 2.423-.29 3.556-.901 3.645-1.968 5.004-6.518 3.037-10.162-4.553-8.435-6.959-17.995-6.959-27.647 0-21.618 11.887-41.346 31.021-51.483z"/><path d="m474.956 134.876c-6.717-12.487-19.979-20.342-34.36-19.9-5.494-9.887-15.204-16.835-26.327-18.87-.769-4.331-2.134-8.515-4.081-12.498-1.819-3.723-6.312-5.263-10.031-3.445-3.722 1.818-5.264 6.31-3.445 10.031 1.997 4.086 3.098 8.487 3.273 13.083.154 4.028 3.504 7.214 7.535 7.214 9.576 0 18.199 6.049 21.458 15.053 1.25 3.454 4.819 5.499 8.429 4.819 1.431-.267 2.862-.402 4.253-.402 8.94 0 17.099 5.274 20.785 13.437.685 1.516 1.854 2.762 3.324 3.54 19.134 10.138 31.021 29.865 31.021 51.483 0 25.741-16.518 48.113-41.104 55.671-2.939.903-5.03 3.51-5.273 6.576-1.346 16.97-15.747 30.263-32.784 30.263-3.47 0-6.899-.542-10.192-1.612-3.698-1.204-7.7.622-9.221 4.2-3.586 8.439-11.828 13.893-20.997 13.893-5.031 0-9.797-1.606-13.783-4.645-2.014-1.535-4.669-1.948-7.056-1.103-2.387.848-4.186 2.843-4.781 5.305-2.277 9.419-9.384 17.255-18.549 20.45-3.207 1.118-5.262 4.251-5.01 7.638.04.538.06 1.017.06 1.464 0 10.526-8.559 19.091-19.08 19.091-7.71 0-14.621-4.591-17.605-11.694-.814-1.939-2.406-3.448-4.387-4.157-1.981-.708-4.168-.553-6.028.429-3.599 1.899-7.499 2.862-11.589 2.862-11.425 0-21.355-7.722-24.148-18.776-.542-2.145-2.002-3.94-3.991-4.907-1.988-.97-4.303-1.008-6.324-.11-2.951 1.311-6.061 1.975-9.246 1.975-10.174 0-19.2-6.834-21.95-16.619-.541-1.924-1.826-3.553-3.572-4.524-1.745-.972-3.806-1.206-5.728-.653-2.982.86-6.064 1.297-9.161 1.297-7.244 0-14.121-2.312-19.887-6.687-1.705-1.293-3.879-1.797-5.978-1.384-2.099.412-3.922 1.7-5.011 3.541-4.089 6.914-11.613 11.209-19.634 11.209-9.169 0-17.412-5.453-20.998-13.894-1.521-3.577-5.522-5.403-9.221-4.199-3.292 1.07-6.722 1.612-10.192 1.612-17.037 0-31.437-13.293-32.784-30.263-.243-3.067-2.335-5.675-5.276-6.577-4.53-1.391-8.882-3.34-12.935-5.795-3.543-2.145-8.154-1.014-10.301 2.529-2.146 3.543-1.014 8.154 2.529 10.301 3.717 2.252 7.635 4.166 11.693 5.718 4.182 22.283 23.961 39.087 47.073 39.087 2.916 0 5.811-.264 8.661-.786 6.885 10.659 18.755 17.267 31.75 17.267 10.679 0 20.823-4.589 27.915-12.328 6.911 3.713 14.6 5.648 22.595 5.648 2.201 0 4.397-.151 6.573-.452 6.303 12.613 19.371 20.952 33.837 20.952 2.614 0 5.193-.268 7.723-.799 6.528 13.627 20.389 22.618 35.987 22.618 4.003 0 7.992-.609 11.803-1.788 6.3 8.895 16.579 14.349 27.807 14.349 17.788 0 32.437-13.704 33.951-31.112 8.709-4.282 15.675-11.274 19.916-19.893 4.5 1.849 9.339 2.805 14.333 2.805 12.994 0 24.865-6.607 31.749-17.267 2.85.522 5.745.786 8.661.786 23.11 0 42.889-16.802 47.072-39.083 28.359-10.777 47.088-37.693 47.088-68.427 0-26.365-14.049-50.488-36.834-63.547z"/><path d="m442.737 188.195c.189-1.012.415-2.627.444-3.654 0-11.286-9.183-20.469-20.47-20.469-9.759 0-18.207 6.943-20.085 16.51-.798 4.064 1.85 8.007 5.914 8.805 4.063.793 8.007-1.85 8.805-5.914.501-2.55 2.758-4.4 5.366-4.4 2.889 0 5.263 2.252 5.457 5.092l-.123.964c-.432 1.644-1.508 4.306-4.148 8.077-8.006 11.439-12.783 17.693-15.349 21.054-3.226 4.224-5.173 6.773-3.929 10.822.733 2.384 2.605 4.285 5.008 5.086.991.331 1.782.596 11.843.596 3.904 0 9.206-.04 16.453-.132 4.142-.052 7.458-3.451 7.405-7.594-.052-4.109-3.399-7.405-7.498-7.405-.032 0-.064 0-.096.001-3.836.048-7.862.084-11.532.103 2.583-3.504 5.868-8.05 9.983-13.929 3.37-4.815 5.574-9.394 6.552-13.613z"/><path d="m190.449 156.423c3.358 0 6.59.984 9.345 2.845 5.239 3.539 11.541 4.828 17.745 3.624 6.205-1.201 11.571-4.747 15.11-9.985 3.538-5.238 4.824-11.54 3.623-17.744-1.202-6.205-4.748-11.571-9.985-15.108-10.609-7.167-23.001-10.956-35.838-10.956-35.328 0-64.069 28.741-64.069 64.069 0 35.327 28.741 64.068 64.069 64.068 14.507 0 27.618-4.847 37.917-14.017 2.011-1.792 3.919-3.76 5.67-5.848 8.384-9.997 7.071-24.951-2.926-33.336-9.997-8.381-24.951-7.07-33.339 2.931-.28.334-.578.643-.882.913-1.062.946-2.753 2.031-6.439 2.031-9.232 0-16.744-7.511-16.744-16.743s7.511-16.744 16.743-16.744zm0 48.487c6.549 0 12.072-1.961 16.417-5.831.849-.757 1.658-1.593 2.401-2.479 3.069-3.66 8.544-4.14 12.204-1.071 3.66 3.07 4.141 8.545 1.071 12.205-1.286 1.533-2.684 2.976-4.153 4.284-7.507 6.685-17.169 10.218-27.94 10.218-27.057 0-49.069-22.012-49.069-49.068s22.012-49.069 49.069-49.069c9.832 0 19.321 2.899 27.441 8.386 1.917 1.295 3.215 3.259 3.655 5.53s-.031 4.578-1.326 6.496-3.26 3.216-5.531 3.655-4.579-.031-6.498-1.328c-5.245-3.542-11.38-5.414-17.741-5.414-17.503 0-31.744 14.24-31.744 31.744.001 17.502 14.241 31.742 31.744 31.742z"/><path d="m321.126 141.423c-17.504 0-31.744 14.24-31.744 31.744 0 17.503 14.24 31.743 31.744 31.743 17.503 0 31.744-14.24 31.744-31.743 0-17.504-14.24-31.744-31.744-31.744zm0 48.487c-9.233 0-16.744-7.511-16.744-16.743s7.511-16.744 16.744-16.744c9.232 0 16.744 7.512 16.744 16.744s-7.511 16.743-16.744 16.743z"/><path d="m321.126 109.098c-35.328 0-64.069 28.741-64.069 64.069 0 35.327 28.741 64.068 64.069 64.068s64.069-28.741 64.069-64.068c0-35.328-28.741-64.069-64.069-64.069zm0 113.137c-27.057 0-49.069-22.012-49.069-49.068s22.012-49.069 49.069-49.069 49.069 22.013 49.069 49.069-22.012 49.068-49.069 49.068z"/><path d="m418.161 377.593c-2.417-5.247-5.957-9.921-10.423-13.718-3.156-2.684-7.89-2.299-10.572.857-2.683 3.156-2.299 7.89.857 10.572 3.709 3.152 6.395 7.267 7.767 11.896 1.019 3.439 4.333 5.671 7.9 5.337.536-.052 1.058-.077 1.551-.077 9.23 0 16.74 7.51 16.74 16.74 0 9.236-7.509 16.75-16.74 16.75-.271 0-.535-.003-.794-.021-3.806-.262-7.225 2.38-7.906 6.146-1.442 7.965-8.369 13.746-16.47 13.746-7.679 0-14.357-5.193-16.239-12.63-.629-2.486-2.485-4.479-4.92-5.282-2.437-.805-5.113-.308-7.098 1.316-2.969 2.429-6.724 3.766-10.572 3.766-9.23 0-16.74-7.514-16.74-16.75 0-8.826 6.896-16.163 15.701-16.704 3.761-.231 6.767-3.218 7.022-6.978.62-9.12 6.18-17.135 14.51-20.917 3.772-1.712 5.441-6.157 3.729-9.93-1.712-3.771-6.158-5.443-9.929-3.729-11.505 5.223-19.715 15.48-22.411 27.572-13.648 3.608-23.623 16.07-23.623 30.685 0 17.507 14.239 31.75 31.74 31.75 4.055 0 8.057-.784 11.78-2.272 5.658 9.204 15.786 15.103 27.049 15.103 13.277 0 24.891-8.193 29.564-20.173 15.43-2.146 27.346-15.431 27.346-31.447 0-16.517-12.683-30.129-28.819-31.608z"/><path d="m303.11 448.645c-6.426-13.879-20.579-23.167-36.168-23.167-21.959 0-39.825 17.865-39.825 39.825s17.866 39.825 39.825 39.825c3.963 0 7.833-.572 11.561-1.707 5.834 5.446 13.602 8.579 21.689 8.579 17.503 0 31.744-14.24 31.744-31.744 0-16.52-12.685-30.133-28.826-31.611zm-2.918 48.355c-5.388 0-10.311-2.498-13.507-6.854-1.451-1.978-3.721-3.063-6.05-3.063-1.072 0-2.156.23-3.179.71-3.307 1.549-6.844 2.335-10.514 2.335-13.688 0-24.825-11.137-24.825-24.825s11.137-24.825 24.825-24.825c10.918 0 20.706 7.308 23.802 17.771 1.015 3.432 4.317 5.677 7.878 5.341.563-.052 1.077-.077 1.57-.077 9.232 0 16.744 7.512 16.744 16.744s-7.511 16.743-16.744 16.743z"/></g></g></svg>