<svg id="Capa_1" enable-background="new 0 0 512 512" height="512" viewBox="0 0 512 512" width="512" xmlns="http://www.w3.org/2000/svg"><g><path d="m451.17 60.83v-60.83h-451.17v451.17h60.83v60.83h451.17v-451.17zm-421.17 360.34v-391.17h391.17v30.83h-360.34v360.34zm452 60.83h-391.17v-391.17h391.17z"/><path d="m188.599 448.361 98.058-98.058 98.058 98.058 63.639-63.639-98.058-98.058 98.058-98.058-63.639-63.639-98.058 98.058-98.058-98.058-63.639 63.639 98.058 98.058-98.058 98.058zm-21.213-259.754 21.212-21.213 98.058 98.058 98.058-98.058 21.212 21.213-98.058 98.058 98.058 98.058-21.212 21.213-98.058-98.058-98.058 98.058-21.212-21.213 98.058-98.058z"/></g></svg>