<svg height="448pt" viewBox="0 0 448 448" width="448pt" xmlns="http://www.w3.org/2000/svg"><path d="m224 0c-123.710938 0-224 100.289062-224 224s100.289062 224 224 224 224-100.289062 224-224c-.140625-123.652344-100.347656-223.859375-224-224zm75.296875 289.527344c3.574219-2.597656 8.578125-1.804688 11.175781 1.769531s1.804688 8.578125-1.769531 11.175781l-88 64c-.257813.144532-.523437.277344-.800781.390625-.199219.113281-.367188.257813-.566406.351563l-.542969.21875c-.890625.355468-1.835938.546875-2.792969.566406-.960938-.019531-1.910156-.210938-2.800781-.566406l-.542969-.21875c-.199219-.09375-.367188-.238282-.566406-.351563-.277344-.113281-.542969-.246093-.800782-.390625l-88-64c-3.574218-2.597656-4.367187-7.601562-1.769531-11.175781 2.597657-3.574219 7.601563-4.367187 11.175781-1.769531l75.304688 54.769531v-208.59375l-75.296875 54.769531c-3.574219 2.597656-8.578125 1.804688-11.175781-1.769531s-1.804688-8.578125 1.769531-11.175781l88-64c.085937-.0625.199219-.070313.289063-.128906.269531-.171876.550781-.328126.847656-.460938.367187-.179688.746094-.328125 1.132812-.449219.292969-.117187.59375-.210937.898438-.289062.316406-.046875.632812-.074219.949218-.078125.210938 0 .378907-.121094.585938-.121094s.382812.105469.59375.121094c.308594.007812.617188.03125.925781.070312.3125.082032.621094.183594.921875.304688.390625.117187.773438.265625 1.144532.449218.273437.132813.542968.285157.796874.453126.097657.058593.210938.066406.296876.128906l88 64c3.574218 2.597656 4.367187 7.601562 1.769531 11.175781-2.597657 3.574219-7.601563 4.367187-11.175781 1.769531l-75.273438-54.769531v208.59375zm0 0"/></svg>